<svg viewBox="0 0 46 46" fill="none" xmlns="http://www.w3.org/2000/svg">
    <circle cx="23" cy="23" r="23" fill="#D9D9D9"/>
    <circle cx="23" cy="23" r="23" fill="url(#paint0_linear_1_57)"/>
    <path d="M29.6776 15.7571L20.8845 24.7288L16.3263 20.0819C15.8509 19.5971 15.2063 19.3248 14.5341 19.3248C13.862 19.3248 13.2174 19.5971 12.742 20.0819C12.2669 20.567 12 21.2247 12 21.9104C12 22.5962 12.2669 23.2539 12.742 23.739L19.1367 30.2635C19.5994 30.7351 20.2266 31 20.8806 31C21.5347 31 22.1619 30.7351 22.6246 30.2635L33.258 19.4141C33.7331 18.9291 34 18.2714 34 17.5856C34 16.8998 33.7331 16.2421 33.258 15.7571C33.023 15.5171 32.7439 15.3267 32.4367 15.1968C32.1296 15.0669 31.8003 15 31.4678 15C31.1353 15 30.806 15.0669 30.4988 15.1968C30.1917 15.3267 29.9126 15.5171 29.6776 15.7571Z" fill="white"/>
    <defs>
        <linearGradient id="paint0_linear_1_57" x1="23" y1="0" x2="23" y2="46" gradientUnits="userSpaceOnUse">
            <stop stop-color="#33ACD4"/>
            <stop offset="1" stop-color="#027398"/>
        </linearGradient>
    </defs>
</svg>
